<svg width="170.16" xmlns="http://www.w3.org/2000/svg" height="233.667" id="screenshot-dff90066-d893-802f-8007-7902580d3cf6" viewBox="1039.992 153 170.16 233.667" xmlns:xlink="http://www.w3.org/1999/xlink" fill="none" version="1.1"><g id="shape-dff90066-d893-802f-8007-7902580d3cf6"><g class="fills" id="fills-dff90066-d893-802f-8007-7902580d3cf6"><path d="M1136.102783203125,314.76116943359375C1150.2587890625,299.09600830078125,1162.733642578125,283.31378173828125,1174.3717041015625,267.0658264160156C1186.4580078125,250.1902618408203,1194.58203125,224.58056640625,1194.0067138671875,208.57420349121094C1192.4501953125,165.0553741455078,1163.381103515625,155.3225555419922,1135.52001953125,153.25048828125C1112.413330078125,151.53204345703125,1069.5469970703125,157.2252960205078,1064.8126220703125,216.1502685546875C1062.170166015625,249.06207275390625,1080.0966796875,283.74713134765625,1106.966552734375,314.2082824707031C1089.6502685546875,331.26068115234375,1068.065185546875,350.1236267089844,1039.9923095703125,371.09356689453125C1044.851318359375,377.359619140625,1049.7501220703125,381.6905822753906,1056.70849609375,386.66656494140625C1082.260986328125,367.34039306640625,1103.4898681640625,348.59942626953125,1121.89453125,329.8460693359375C1144.0673828125,351.3688659667969,1170.1004638671875,369.9454345703125,1195.139892578125,383.06280517578125C1201.209228515625,380.7864990234375,1208.5286865234375,373.6114501953125,1210.152587890625,367.16107177734375C1177.875732421875,348.1810302734375,1153.8997802734375,330.8447570800781,1136.102783203125,314.76116943359375M1086.101318359375,218.93960571289062C1085.27685546875,192.6724090576172,1105.29052734375,169.96664428710938,1131.94873046875,172.06362915039062C1155.872314453125,173.94644165039062,1173.20361328125,183.36546325683594,1172.7728271484375,211.2539520263672C1172.5186767578125,227.66378784179688,1162.7386474609375,250.0682373046875,1150.1865234375,265.87286376953125C1141.9429931640625,276.25323486328125,1132.5439453125,287.53515625,1120.998046875,299.84564208984375C1093.064697265625,269.4442138671875,1086.870849609375,243.48089599609375,1086.101318359375,218.93960571289062" style="fill-rule: nonzero; stroke: none; fill: rgb(226, 0, 26); fill-opacity: 1;"/></g></g></svg>